<svg data-icon-name="linkedin" data-style="line" icon_origin_id="14329" viewBox="0 0 24 24" xmlns="http://www.w3.org/2000/svg" id="linkedin" class="icon line" width="48" height="48"><path style="fill: none; stroke: rgb(55, 65, 81); stroke-linecap: round; stroke-linejoin: round; stroke-width: 1.5;" d="M16,17V14a2,2,0,0,0-2-2h0a2,2,0,0,0-2,2v3" id="primary"></path><path style="fill: none; stroke: rgb(55, 65, 81); stroke-linecap: round; stroke-linejoin: round; stroke-width: 1.5;" d="M20,21H4a1,1,0,0,1-1-1V4A1,1,0,0,1,4,3H20a1,1,0,0,1,1,1V20A1,1,0,0,1,20,21ZM8,12v5m4-3V12" data-name="primary" id="primary-2"></path><line style="fill: none; stroke: rgb(55, 65, 81); stroke-linecap: round; stroke-linejoin: round; stroke-width: 2;" y2="7.5" x2="8.05" y1="7.5" x1="7.95" id="primary-upstroke"></line></svg>